<svg xmlns="http://www.w3.org/2000/svg" width="32.708" height="29.437" viewBox="0 0 32.708 29.437">
  <path id="bx-camera-movie" d="M28.166,16.083a3.275,3.275,0,0,0-2.586-3.2A6.514,6.514,0,1,0,14.265,6.441,6.516,6.516,0,1,0,3.336,13.46,3.261,3.261,0,0,0,2,16.083V29.166a3.274,3.274,0,0,0,3.271,3.271H24.9a3.274,3.274,0,0,0,3.271-3.271V24.852l6.542,3.271V16.675l-6.542,3.271ZM19.989,6.271a3.271,3.271,0,1,1-3.271,3.271A3.274,3.274,0,0,1,19.989,6.271Zm-11.448,0A3.271,3.271,0,1,1,5.271,9.542,3.274,3.274,0,0,1,8.542,6.271Zm-3.271,22.9V16.083H24.9l0,13.083Z" transform="translate(-2 -3)" fill="#996eff"/>
</svg>
