<svg xmlns="http://www.w3.org/2000/svg" width="33.198" height="29.879" viewBox="0 0 33.198 29.879">
  <g id="bx-movie-play" transform="translate(-2 -3)">
    <path id="Path_67" data-name="Path 67" d="M31.879,3H5.32A3.323,3.323,0,0,0,2,6.32V29.559a3.323,3.323,0,0,0,3.32,3.32H31.879a3.323,3.323,0,0,0,3.32-3.32V6.32A3.323,3.323,0,0,0,31.879,3Zm0,9.96h-.772L26.681,6.32h5.2Zm-17.371,0L10.082,6.32h4.309l4.427,6.64Zm8.3,0L18.382,6.32h4.309l4.427,6.64ZM5.32,6.32h.772l4.427,6.64H5.32Zm0,23.239V16.279H31.879l0,13.279Z" fill="#FFD500"/>
    <path id="Path_68" data-name="Path 68" d="M10,21.96l9.13-4.98L10,12Z" transform="translate(5.279 5.939)" fill="#FFD500"/>
  </g>
</svg>
