<svg xmlns="http://www.w3.org/2000/svg" width="33.271" height="33.268" viewBox="0 0 33.271 33.268">
  <g id="bx-palette" transform="translate(-2.003 -2.003)">
    <path id="Path_75" data-name="Path 75" d="M20.964,2.157A16.646,16.646,0,0,0,2.158,20.964,16.684,16.684,0,0,0,18.633,35.271l.236,0a5,5,0,0,0,4.44-7.162l-.331-.692a3.193,3.193,0,0,1,.156-3.181,3.334,3.334,0,0,1,4.286-1.256l.685.328a4.962,4.962,0,0,0,2.164.5,5.028,5.028,0,0,0,5-4.936,16.529,16.529,0,0,0-.587-4.592A16.76,16.76,0,0,0,20.964,2.157Zm8.581,18.149-.685-.328a6.753,6.753,0,0,0-8.543,2.486,6.5,6.5,0,0,0-.339,6.392l.331.692a1.674,1.674,0,0,1-1.489,2.4h-.186A13.344,13.344,0,0,1,5.455,20.516,13.316,13.316,0,0,1,18.635,5.325a13.81,13.81,0,0,1,1.882.13A13.341,13.341,0,0,1,31.943,18.819,1.673,1.673,0,0,1,29.545,20.306Z" transform="translate(0)" fill="#e164c8"/>
    <circle id="Ellipse_6" data-name="Ellipse 6" cx="2.5" cy="2.5" r="2.5" transform="translate(8.639 20.639)" fill="#e164c8"/>
    <circle id="Ellipse_7" data-name="Ellipse 7" cx="2.5" cy="2.5" r="2.5" transform="translate(8.639 13.639)" fill="#e164c8"/>
    <circle id="Ellipse_8" data-name="Ellipse 8" cx="2.5" cy="2.5" r="2.5" transform="translate(13.639 8.639)" fill="#e164c8"/>
    <circle id="Ellipse_9" data-name="Ellipse 9" cx="2.5" cy="2.5" r="2.5" transform="translate(20.639 8.639)" fill="#e164c8"/>
  </g>
</svg>
