<svg xmlns="http://www.w3.org/2000/svg" width="32" height="28.8" viewBox="0 0 32 28.8">
  <g id="bxs-camera" transform="translate(-2 -2)">
    <path id="Path_71" data-name="Path 71" d="M13.8,9a4.8,4.8,0,1,0,4.8,4.8A4.865,4.865,0,0,0,13.8,9Z" transform="translate(4.2 4.2)" fill="#e164c8"/>
    <path id="Path_72" data-name="Path 72" d="M30.8,6.8H26.662L22.331,2.469A1.593,1.593,0,0,0,21.2,2H14.8a1.593,1.593,0,0,0-1.131.469L9.338,6.8H5.2A3.2,3.2,0,0,0,2,10V27.6a3.2,3.2,0,0,0,3.2,3.2H30.8A3.2,3.2,0,0,0,34,27.6V10A3.2,3.2,0,0,0,30.8,6.8ZM18,26a8.108,8.108,0,0,1-8-8,8.108,8.108,0,0,1,8-8,8.108,8.108,0,0,1,8,8A8.108,8.108,0,0,1,18,26Z" fill="#e164c8"/>
  </g>
</svg>
