<svg xmlns="http://www.w3.org/2000/svg" width="35.098" height="32.136" viewBox="0 0 35.098 32.136">
  <g id="forge-icon_5_" data-name="forge-icon (5)" transform="translate(-8.881 -9.44)">
    <path id="Path_76" data-name="Path 76" d="M24.3,40.568c.578-1.476,5.034-12.121,14.089-14.16a.064.064,0,0,0,0-.128c-1.526-.613-10.852-4.684-13.818-14.446a.064.064,0,1,0-.128,0c-.364,1.619-2.809,10.289-14.26,14.26a.071.071,0,0,0,0,.135c1.6.271,9.611,2.239,13.989,14.367a.071.071,0,0,0,.128-.029Z" transform="translate(0 -0.31)" fill="none" stroke="#096509" stroke-width="2.5"/>
    <path id="Path_77" data-name="Path 77" d="M46.761,20.95c.207-.528,1.8-4.328,5.034-5.055v-.05a8.672,8.672,0,0,1-4.934-5.155h-.05a7.329,7.329,0,0,1-5.091,5.084v.05c.57.1,3.43.8,4.991,5.134Z" transform="translate(-9.066)" fill="none" stroke="#096509" stroke-width="2.5"/>
  </g>
</svg>
