<svg xmlns="http://www.w3.org/2000/svg" width="115" height="59" viewBox="0 0 115 59">
  <g id="Group_19" data-name="Group 19" transform="translate(-165 -48)">
    <g id="Group_18" data-name="Group 18">
      <text id="F_CUS" data-name="F   CUS" transform="translate(165 97)" fill="#5e2ced" font-size="49" font-family="BarlowCondensed-Regular, Barlow"><tspan x="0" y="0" xml:space="preserve">F   CUS</tspan></text>
    </g>
    <g id="Group_15" data-name="Group 15" transform="translate(-1)">
      <g id="Group_11" data-name="Group 11" transform="translate(197.603 77.487)">
        <line id="Line_13" data-name="Line 13" x2="5.232" transform="translate(0 2.616)" fill="none" stroke="#5e2ced" stroke-width="1"/>
        <line id="Line_14" data-name="Line 14" x2="5.232" transform="translate(2.616 0) rotate(90)" fill="none" stroke="#5e2ced" stroke-width="1"/>
      </g>
      <g id="Subtraction_6" data-name="Subtraction 6" transform="translate(8144 -3695)" fill="none">
        <path d="M-7937,3792h-1v-3h1a2,2,0,0,0,2-2v-5h3v5A5.007,5.007,0,0,1-7937,3792Zm-12,0h-1a5.007,5.007,0,0,1-5-5v-5h3v5a2,2,0,0,0,2,2h1v3l0,0Zm17-23h-3v-6a2,2,0,0,0-2-2h-1v-3h1a5.007,5.007,0,0,1,5,5v6l0,0Zm-20,0h-3v-6a5.007,5.007,0,0,1,5-5h1v3h-1a2,2,0,0,0-2,2v6Z" stroke="none"/>
        <path d="M -7937.0009765625 3792.001953125 L -7937.9990234375 3792.001953125 L -7937.9990234375 3788.999267578125 L -7937.0009765625 3788.999267578125 C -7935.89794921875 3788.999267578125 -7935.00048828125 3788.10205078125 -7935.00048828125 3786.9990234375 L -7935.00048828125 3781.999755859375 L -7932 3781.999755859375 L -7932 3787.0009765625 C -7932 3789.758544921875 -7934.24365234375 3792.001953125 -7937.0009765625 3792.001953125 Z M -7948.99951171875 3792.001953125 L -7949.00146484375 3792.001953125 L -7950 3792.001953125 C -7952.75732421875 3792.001953125 -7955.0009765625 3789.758544921875 -7955.0009765625 3787.0009765625 L -7955.0009765625 3781.999755859375 L -7952 3781.999755859375 L -7952 3786.9990234375 C -7952 3788.10205078125 -7951.10302734375 3788.999267578125 -7950 3788.999267578125 L -7948.99951171875 3788.999267578125 L -7948.99951171875 3792 L -7948.99755859375 3792.001708984375 L -7948.99951171875 3792.001953125 Z M -7932 3769.0009765625 L -7935.00048828125 3769.0009765625 L -7935.00048828125 3762.999755859375 C -7935.00048828125 3761.896728515625 -7935.89794921875 3760.999267578125 -7937.0009765625 3760.999267578125 L -7937.9990234375 3760.999267578125 L -7937.9990234375 3758.000732421875 L -7937.0009765625 3758.000732421875 C -7934.24365234375 3758.000732421875 -7932 3760.244140625 -7932 3763.001708984375 L -7932 3768.9990234375 L -7931.998046875 3769.000732421875 L -7932 3769.0009765625 Z M -7952 3769.0009765625 L -7952.0009765625 3769.0009765625 L -7955.0009765625 3769.0009765625 L -7955.0009765625 3763.001708984375 C -7955.0009765625 3760.244140625 -7952.75732421875 3758.000732421875 -7950 3758.000732421875 L -7948.99951171875 3758.000732421875 L -7948.99951171875 3760.999267578125 L -7950 3760.999267578125 C -7951.10302734375 3760.999267578125 -7952 3761.896728515625 -7952 3762.999755859375 L -7952 3769 L -7952 3769.0009765625 Z" stroke="none" fill="#5e2ced"/>
      </g>
    </g>
  </g>
</svg>
