<svg xmlns="http://www.w3.org/2000/svg" width="40.941" height="43.22" viewBox="0 0 40.941 43.22">
  <g id="forge-icon_2_" data-name="forge-icon (2)" transform="matrix(0.891, -0.454, 0.454, 0.891, -14.565, 11.033)">
    <path id="Path_59" data-name="Path 59" d="M10.929,20.66h5.947V32.4H10.929A1.419,1.419,0,0,1,9.51,30.985V22.079A1.419,1.419,0,0,1,10.929,20.66Z" transform="translate(0 -2.799)" fill="none" stroke="#ffa061" stroke-width="3"/>
    <path id="Path_60" data-name="Path 60" d="M19.89,29.605V17.861s3.1.071,8.26,0,11.2-3.335,15.122-6.671a.71.71,0,0,1,1.171.532v24.05a.71.71,0,0,1-1.143.561c-2.526-1.987-8.814-6.429-14.9-6.614C24.836,29.605,21.955,29.605,19.89,29.605Z" transform="translate(-3.014 0)" fill="none" stroke="#ffa061" stroke-width="3"/>
    <path id="Path_61" data-name="Path 61" d="M21.025,48.418H17.619A1.419,1.419,0,0,1,16.2,47l-.71-9.779h6.245L22.444,47A1.419,1.419,0,0,1,21.025,48.418Z" transform="translate(-1.736 -7.608)" fill="none" stroke="#ffa061" stroke-width="3"/>
  </g>
</svg>
